<svg xmlns="http://www.w3.org/2000/svg" width="26" height="30" viewBox="0 0 26 30" fill="none"><path stroke="currentColor" stroke-linecap="round" stroke-linejoin="round" stroke-width="2" d="M5.76 14.222v3.89m0-3.89V4.89c0-1.289 1.066-2.333 2.38-2.333 1.314 0 2.38 1.044 2.38 2.333m-4.76 9.333c0-1.288-1.066-2.333-2.38-2.333-1.314 0-2.38 1.045-2.38 2.333v3.111C1 23.777 6.328 29 12.9 29s11.9-5.223 11.9-11.667V9.556c0-1.29-1.066-2.334-2.38-2.334-1.314 0-2.38 1.045-2.38 2.334m-9.52-4.667v8.555m0-8.555V3.333C10.52 2.045 11.586 1 12.9 1c1.314 0 2.38 1.045 2.38 2.333V4.89m0 0v8.555m0-8.555c0-1.289 1.066-2.333 2.38-2.333 1.314 0 2.38 1.044 2.38 2.333v4.667m0 0v3.888"/></svg>