<svg xmlns="http://www.w3.org/2000/svg" width="30" height="30" viewBox="0 0 30 30" fill="none"><path stroke="currentColor" stroke-linecap="round" stroke-linejoin="round" stroke-width="2" d="M6.444 6.444h.016m17.096 0h.015M6.444 23.556h.016m10.096-7h.015m6.985 7h.015M22.778 29H29v-6.222M18.111 22v7M29 18.111h-7m-1.4-6.222h5.911c.871 0 1.307 0 1.64-.17.292-.149.53-.387.68-.68C29 10.707 29 10.271 29 9.4V3.489c0-.871 0-1.307-.17-1.64a1.556 1.556 0 0 0-.68-.68C27.819 1 27.383 1 26.512 1H20.6c-.871 0-1.307 0-1.64.17-.292.149-.53.387-.68.68-.169.332-.169.768-.169 1.639V9.4c0 .871 0 1.307.17 1.64.149.292.387.53.68.68.332.169.768.169 1.639.169Zm-17.111 0H9.4c.871 0 1.307 0 1.64-.17.292-.149.53-.387.68-.68.169-.332.169-.768.169-1.639V3.489c0-.871 0-1.307-.17-1.64a1.555 1.555 0 0 0-.68-.68C10.707 1 10.271 1 9.4 1H3.489c-.871 0-1.307 0-1.64.17-.292.149-.53.387-.68.68C1 2.181 1 2.617 1 3.488V9.4c0 .871 0 1.307.17 1.64.149.292.387.53.68.68.332.169.768.169 1.639.169Zm0 17.111H9.4c.871 0 1.307 0 1.64-.17.292-.149.53-.387.68-.68.169-.332.169-.768.169-1.639V20.6c0-.871 0-1.307-.17-1.64a1.555 1.555 0 0 0-.68-.68c-.332-.169-.768-.169-1.639-.169H3.489c-.871 0-1.307 0-1.64.17-.292.149-.53.387-.68.68C1 19.293 1 19.729 1 20.6v5.911c0 .871 0 1.307.17 1.64.149.292.387.53.68.68.332.169.768.169 1.639.169Z"/></svg>