<svg xmlns="http://www.w3.org/2000/svg" width="50" height="50" viewBox="0 0 50 50" fill="none"><path stroke="currentColor" stroke-linecap="round" stroke-linejoin="round" stroke-width="2" d="M26.263 3.526h10.61c4.245 0 6.368 0 7.989.826a7.579 7.579 0 0 1 3.312 3.312C49 9.286 49 11.408 49 15.653v21.22c0 4.245 0 6.368-.826 7.989a7.578 7.578 0 0 1-3.312 3.312C43.24 49 41.118 49 36.874 49H15.653c-4.245 0-6.367 0-7.989-.826a7.579 7.579 0 0 1-3.312-3.312c-.826-1.621-.826-3.744-.826-7.988v-10.61m12.632 2.526v10.105m20.21-15.158v15.158M26.263 13.632v25.263M1 8.579l7.579 7.579m0 0 7.579-7.58m-7.58 7.58L8.58 1"/></svg>